<?xml version="1.0" standalone="no"?><!DOCTYPE svg PUBLIC "-//W3C//DTD SVG 1.1//EN" "http://www.w3.org/Graphics/SVG/1.1/DTD/svg11.dtd"><svg t="1539135689578" class="icon" style="" viewBox="0 0 1024 1024" version="1.1" xmlns="http://www.w3.org/2000/svg" p-id="5826" xmlns:xlink="http://www.w3.org/1999/xlink" width="200" height="200"><defs><style type="text/css"></style></defs><path d="M456.704 415.744H409.6c0-49.152-40.96-90.112-90.112-90.112s-90.112 40.96-90.112 90.112H182.272a137.216 137.216 0 0 1 274.432 0z" fill="#FAAF61" p-id="5827"></path><path d="M681.984 415.744H634.88c0-49.152-40.96-90.112-90.112-90.112s-90.112 40.96-90.112 90.112h-47.104a137.216 137.216 0 0 1 274.432 0z" fill="#FAAF61" p-id="5828"></path><path d="M909.312 415.744h-47.104c0-49.152-40.96-90.112-90.112-90.112s-90.112 53.248-90.112 102.4H634.88c0-75.776 61.44-149.504 137.216-149.504s137.216 61.44 137.216 137.216z" fill="#FAAF61" p-id="5829"></path><path d="M536.576 972.8L180.224 421.888v-6.144c0-200.704 163.84-364.544 364.544-364.544s364.544 163.84 364.544 364.544v6.144L536.576 972.8zM227.328 407.552l309.248 481.28 325.632-481.28C858.112 235.52 716.8 96.256 544.768 96.256s-313.344 139.264-317.44 311.296z" fill="#F2AB7B" p-id="5830"></path><path d="M851.968 421.888L536.576 888.832 235.52 421.888H180.224l356.352 550.912 372.736-550.912z" fill="#5B9BDC" p-id="5831"></path><path d="M227.328 407.552c4.096-172.032 145.408-311.296 317.44-311.296s313.344 139.264 317.44 311.296l-10.24 14.336h55.296v-6.144c0-200.704-163.84-364.544-364.544-364.544s-364.544 163.84-364.544 364.544v6.144h55.296l-6.144-14.336z" fill="#F2AB7B" p-id="5832"></path><path d="M534.528 948.224l-126.976-532.48h49.152l83.968 346.112L634.88 425.984h47.104z" fill="#5B9BDC" p-id="5833"></path></svg>