<?xml version="1.0" standalone="no"?><!DOCTYPE svg PUBLIC "-//W3C//DTD SVG 1.1//EN" "http://www.w3.org/Graphics/SVG/1.1/DTD/svg11.dtd"><svg t="1539088465705" class="icon" style="" viewBox="0 0 1024 1024" version="1.1" xmlns="http://www.w3.org/2000/svg" p-id="34406" xmlns:xlink="http://www.w3.org/1999/xlink" width="200" height="200"><defs><style type="text/css"></style></defs><path d="M446.363 474.301s31.687-72.425 76.953-72.425c45.268 0 88.27 88.26 88.27 88.26l-20.369 15.829s-40.74-76.93-67.9-76.93-72.426 72.406-72.426 72.406l-4.528-27.14z" fill="#F4C876" p-id="34407"></path><path d="M591.054 506.725l-0.278-0.526c-0.406-0.767-40.909-76.664-67.459-76.664-26.574 0-71.551 71.45-72.002 72.171l-0.7 1.12-4.769-28.589 0.06-0.136c0.08-0.182 8.101-18.367 21.56-36.313 12.458-16.611 32.262-36.413 55.852-36.413 23.592 0 46.472 24.108 61.512 44.332 16.248 21.85 27.1 43.988 27.207 44.209l0.178 0.365-21.161 16.444z m-67.738-78.19c26.27 0 64.124 69.322 68.063 76.67l19.577-15.214c-3.087-6.174-44.67-87.616-87.64-87.616-43.5 0-74.86 68.48-76.435 71.991l4.286 25.699c6.038-9.476 46.55-71.53 72.149-71.53z" fill="#ECC375" p-id="34408"></path><path d="M772.283 362.094H301.511s-12.002-13.099 0-15.912c83.221-19.501 396.799-21.451 470.772 0 10.666 3.095 0 15.912 0 15.912z" fill="#F4C876" p-id="34409"></path><path d="M772.518 362.594H301.291l-0.148-0.162c-0.278-0.304-6.791-7.49-5.221-12.576 0.635-2.058 2.478-3.458 5.476-4.161 39.868-9.342 136.41-15.379 245.954-15.379 106.103 0 192.345 5.896 225.072 15.386 2.604 0.755 4.23 2.142 4.837 4.122 1.565 5.11-4.34 12.287-4.592 12.59l-0.151 0.18z m-470.782-1h470.307c0.892-1.129 5.542-7.298 4.261-11.478-0.502-1.636-1.901-2.798-4.16-3.454-32.643-9.465-118.778-15.346-224.793-15.346-109.473 0-205.926 6.026-245.725 15.353-2.628 0.616-4.226 1.788-4.749 3.482-1.284 4.158 3.916 10.364 4.859 11.443z" fill="#ECC375" p-id="34410"></path><path d="M573.109 451.668s-22.635-67.899 40.74-81.479c63.373-13.58 185.594-18.106 258.02 0 72.424 18.107 76.953 36.213 99.586 86.006 22.633 49.77 26.172 169.278-18.107 217.25-54.318 58.846-149.377 54.319-230.857 0C641.011 619.127 586.69 546.7 586.69 546.7l-13.581-95.032z" fill="#040000" p-id="34411"></path><path d="M850.542 716.398c-41.607 0-87.182-15.107-128.329-42.538-80.619-53.744-135.38-126.136-135.924-126.861l-0.076-0.103-0.019-0.127-13.58-95.031c-0.087-0.236-10.613-32.578 3.32-56.972 7.327-12.827 20.048-21.261 37.811-25.067 34.929-7.485 85.683-11.954 135.765-11.954 34.056 0 82.949 2.074 122.48 11.958 68.791 17.199 76.318 33.911 96.437 78.574 1.118 2.482 2.275 5.051 3.483 7.709 11.55 25.397 17.862 68.39 16.083 109.528-1.206 27.871-7.263 78.999-34.278 108.268-25.734 27.88-61.41 42.616-103.173 42.616zM587.166 546.501c2.369 3.121 56.524 73.812 135.602 126.527 40.984 27.322 86.362 42.37 127.774 42.37 41.476 0 76.898-14.625 102.438-42.293 19.862-21.519 31.941-59.744 34.014-107.634 1.773-40.992-4.505-83.805-15.994-109.07-1.209-2.66-2.366-5.229-3.485-7.713-19.973-44.342-27.446-60.933-95.767-78.015-39.433-9.858-88.239-11.927-122.238-11.927-50.016 0-100.691 4.46-135.556 11.931-17.47 3.744-29.968 12.014-37.148 24.581-13.713 24.002-3.328 55.933-3.222 56.252l13.582 94.991z" fill="" p-id="34412"></path><path d="M454.249 451.668s22.635-67.899-40.739-81.479c-63.375-13.58-185.593-18.106-258.02 0-72.427 18.107-76.954 36.213-99.586 86.006-22.633 49.77-26.172 169.278 18.107 217.25 54.319 58.846 149.378 54.319 230.857 0C386.348 619.127 440.669 546.7 440.669 546.7l13.58-95.032z" fill="#040000" p-id="34413"></path><path d="M176.824 716.398h-0.005c-41.764-0.002-77.441-14.737-103.174-42.615-27.016-29.269-33.072-80.396-34.278-108.268-1.779-41.139 4.533-84.13 16.083-109.528 1.209-2.66 2.367-5.23 3.485-7.714 20.116-44.661 27.644-61.372 96.435-78.57 39.532-9.883 88.425-11.958 122.48-11.958 50.082 0 100.835 4.469 135.766 11.954 17.761 3.806 30.482 12.24 37.809 25.066 13.934 24.394 3.408 56.736 3.299 57.06l-13.576 95.07-0.077 0.103c-0.543 0.726-55.304 73.117-135.923 126.861-41.148 27.432-86.721 42.539-128.324 42.539zM277.85 358.746c-33.999 0-82.805 2.069-122.238 11.927-68.321 17.081-75.794 33.672-95.765 78.011-1.12 2.485-2.277 5.056-3.487 7.717-11.489 25.265-17.767 68.078-15.994 109.07 2.072 47.89 14.151 86.115 34.013 107.634 25.539 27.667 60.962 42.291 102.439 42.293 41.41 0.001 86.787-15.046 127.773-42.37 79.083-52.721 133.233-123.406 135.602-126.527l13.561-94.904c0.127-0.407 10.512-32.338-3.201-56.34-7.18-12.566-19.678-20.836-37.147-24.58-34.866-7.47-85.541-11.931-135.556-11.931z" fill="#040000" p-id="34414"></path><path d="M2.753 483.351h45.268v49.767H2.753z" fill="#F4C876" p-id="34415"></path><path d="M48.521 533.618H2.253v-50.767h46.268v50.767z m-45.268-1h44.268v-48.767H3.253v48.767z" fill="#ECC375" p-id="34416"></path><path d="M975.98 483.351h45.268v49.767H975.98z" fill="#F4C876" p-id="34417"></path><path d="M1021.748 533.618H975.48v-50.767h46.268v50.767z m-45.268-1h44.268v-48.767H976.48v48.767z" fill="#ECC375" p-id="34418"></path></svg>