<?xml version="1.0" standalone="no"?><!DOCTYPE svg PUBLIC "-//W3C//DTD SVG 1.1//EN" "http://www.w3.org/Graphics/SVG/1.1/DTD/svg11.dtd"><svg t="1539137146387" class="icon" style="" viewBox="0 0 1024 1024" version="1.1" xmlns="http://www.w3.org/2000/svg" p-id="18164" xmlns:xlink="http://www.w3.org/1999/xlink" width="200" height="200"><defs><style type="text/css"></style></defs><path d="M292.4 243.4l438.6-0.5c4.7 0 9.4-2.6 12-6.8 25.5-41.2 19.3-93.2-15.1-127.6-40.1-40.1-105.7-40.1-146.4 0l-69.8 70.8-70.3-70.3c-40.1-40.1-105.7-40.1-146.4 0-34.4 34.4-40.1 87-14.6 127.6 2.7 4.2 7.3 6.8 12 6.8z m584.5 36.5H146.6c-42.7 0-77.6 33.3-77.6 74.5s34.4 74 77.6 74h730.8c42.7 0 77.6-33.3 77.6-74.5s-34.9-74-78.1-74zM461.2 465.3H156.5v371.4c0 59.9 49 108.9 108.9 108.9h215.1V465.3h-19.3z m380.3 0H542v480.3h216.2c59.9 0 108.9-49 108.9-108.9V465.3h-25.6z m0 0" fill="#FF7E16" p-id="18165"></path></svg>