<?xml version="1.0" standalone="no"?><!DOCTYPE svg PUBLIC "-//W3C//DTD SVG 1.1//EN" "http://www.w3.org/Graphics/SVG/1.1/DTD/svg11.dtd"><svg t="1539137156539" class="icon" style="" viewBox="0 0 1024 1024" version="1.1" xmlns="http://www.w3.org/2000/svg" p-id="18283" xmlns:xlink="http://www.w3.org/1999/xlink" width="200" height="200"><defs><style type="text/css"></style></defs><path d="M473.673143 254.049524v219.209143H24.380952v-175.981715c0-27.696762 21.869714-49.859048 49.298286-49.859047h204.751238c-54.979048-11.629714-96.256-35.449905-97.743238-79.408762-1.536-51.809524 56.173714-135.533714 140.507429-116.394667 87.04 19.821714 147.846095 87.990857 194.389333 146.358857 47.006476-59.587048 113.590857-136.265143 204.458667-148.382476 75.922286-9.679238 138.654476 66.998857 130.584381 117.613714-6.92419 44.348952-48.88381 68.510476-102.473143 80.164572h202.166857c27.40419 0 49.298286 22.211048 49.298286 49.859047v175.932953H550.278095l-0.950857-221.549714M330.459429 97.52381c-42.008381-16.798476-66.633143 1.219048-84.333715 30.768761-9.606095 16.700952-19.968 38.960762-4.632381 55.271619 40.423619 42.057143 151.28381 38.936381 225.645715 31.110096C432.103619 170.374095 388.998095 120.880762 330.459429 97.52381m459.312761 85.723428c28.867048-37.376-27.696762-115.297524-88.527238-86.479238-58.148571 27.648-100.132571 72.801524-136.265142 117.223619a690.712381 690.712381 0 0 0 93.96419 1.950476c38.083048-1.609143 108.544-4.291048 130.82819-32.694857zM476.769524 999.619048H110.567619c-24.624762 0-44.665905-20.187429-44.665905-45.519238V508.732952h410.916572V999.619048h-0.048762z m481.28-45.568c0 25.33181-19.992381 45.519238-44.665905 45.519238H547.230476V508.68419h410.819048v445.366858z" fill="#D32D27" p-id="18284"></path></svg>