<?xml version="1.0" standalone="no"?><!DOCTYPE svg PUBLIC "-//W3C//DTD SVG 1.1//EN" "http://www.w3.org/Graphics/SVG/1.1/DTD/svg11.dtd"><svg t="1538456455075" class="icon" style="" viewBox="0 0 1024 1024" version="1.1" xmlns="http://www.w3.org/2000/svg" p-id="15237" xmlns:xlink="http://www.w3.org/1999/xlink" width="200" height="200"><defs><style type="text/css"></style></defs><path d="M160.542 260.339h724.61v498.983h-724.61z" fill="#FFFFFF" p-id="15238"></path><path d="M512.057 0A512.63 512.572 0 0 0 0 512.458C0 794.767 230.06 1024 512.057 1024 794.055 1024 1024 794.767 1024 512.343A512.057 512 0 0 0 512.057 0z m286.688 320.286l-285.43 279.335-288.975-279.45h574.405zM204.777 360.55L364.48 514.288 204.777 663.564z m20.135 343.622l169.885-165.863 117.489 112.1 115.659-112.1 171.6 165.977H224.913z m594.31-40.608L655.173 512.8l164.05-154.424z" fill="#F5A623" p-id="15239"></path></svg>