<?xml version="1.0" standalone="no"?><!DOCTYPE svg PUBLIC "-//W3C//DTD SVG 1.1//EN" "http://www.w3.org/Graphics/SVG/1.1/DTD/svg11.dtd"><svg t="1539138296796" class="icon" style="" viewBox="0 0 1024 1024" version="1.1" xmlns="http://www.w3.org/2000/svg" p-id="23315" xmlns:xlink="http://www.w3.org/1999/xlink" width="200" height="200"><defs><style type="text/css"></style></defs><path d="M64 307.2h896c32 0 64-25.6 64-64 0-32-25.6-64-64-64H64c-32 0-64 25.6-64 64 0 32 25.6 64 64 64M64 576h896c32 0 64-25.6 64-64s-25.6-64-64-64H64c-38.4 0-64 32-64 64s25.6 64 64 64m0 268.8h896c32 0 64-25.6 64-64 0-32-25.6-64-64-64H64c-32 0-64 25.6-64 64 0 32 25.6 64 64 64z m0 0" fill="#ffffff" p-id="23316"></path></svg>