<?xml version="1.0" standalone="no"?><!DOCTYPE svg PUBLIC "-//W3C//DTD SVG 1.1//EN" "http://www.w3.org/Graphics/SVG/1.1/DTD/svg11.dtd"><svg t="1539225365635" class="icon" style="" viewBox="0 0 1024 1024" version="1.1" xmlns="http://www.w3.org/2000/svg" p-id="7391" xmlns:xlink="http://www.w3.org/1999/xlink" width="200" height="200"><defs><style type="text/css"></style></defs><path d="M913.132308 707.268923a144.738462 144.738462 0 0 1 42.41723 102.754462c0 38.793846-15.084308 75.303385-42.41723 102.754461a143.438769 143.438769 0 0 1-102.281846 42.574769c-38.596923 0-74.948923-15.163077-102.281847-42.574769a144.738462 144.738462 0 0 1-42.377846-102.793846c0-38.754462 15.084308-75.264 42.377846-102.715077a143.635692 143.635692 0 0 1 102.281847-42.574769c38.636308 0 74.988308 15.123692 102.281846 42.574769z m-102.281846-101.494154c-117.720615 0-203.224615 85.858462-203.224616 204.130462 0 118.232615 85.504 203.106462 203.224616 203.106461 117.720615 0 203.460923-84.873846 203.460923-203.106461 0-118.232615-85.622154-204.130462-203.460923-204.130462zM169.944615 404.676923a101.730462 101.730462 0 0 1 101.376 101.809231 101.730462 101.730462 0 0 1-101.376 101.848615 101.730462 101.730462 0 0 1-101.376-101.848615 101.730462 101.730462 0 0 1 101.376-101.809231z m0-60.022154c-93.814154 0-160.059077 67.584-160.059077 161.870769 0 94.208 66.244923 157.262769 160.059077 157.26277s160.846769-63.172923 160.84677-157.420308-67.032615-161.713231-160.84677-161.713231z m640.905847-275.771077c30.168615 0 54.744615 24.694154 54.744615 54.980923 0 30.326154-24.576 54.980923-54.744615 54.980923-30.168615 0-54.744615-24.654769-54.744616-54.980923 0-30.326154 24.576-54.980923 54.744616-54.980923z m0-63.212307c-68.135385 0-117.444923 49.782154-117.444924 118.19323 0 68.411077 49.348923 112.561231 117.444924 112.561231 68.135385 0 116.499692-44.110769 116.499692-112.561231 0-68.411077-48.364308-118.193231-116.499692-118.19323z" fill="#1296db" p-id="7392"></path><path d="M266.24 409.324308L720.856615 112.64l36.903385 58.328615-454.616615 296.723693-36.903385-58.368z m0.512 193.772307l31.192615-61.715692 355.91877 185.383385-31.113847 61.715692-355.997538-185.383385z" fill="#1296db" p-id="7393"></path></svg>