<?xml version="1.0" standalone="no"?><!DOCTYPE svg PUBLIC "-//W3C//DTD SVG 1.1//EN" "http://www.w3.org/Graphics/SVG/1.1/DTD/svg11.dtd"><svg t="1539137374392" class="icon" style="" viewBox="0 0 1024 1024" version="1.1" xmlns="http://www.w3.org/2000/svg" p-id="19906" xmlns:xlink="http://www.w3.org/1999/xlink" width="200" height="200"><defs><style type="text/css"></style></defs><path d="M433.3 893.8c-8.6 0-16.7-3.4-22.8-9.5-6.1-6.1-9.4-14.2-9.3-22.9v-5.8c0.5-60.8 1.8-222.4 12-280.5v-0.2c5.5-31.5 10.8-61.4 19.7-91.5-3.5-0.4-7.3-1-11.4-1.5-10.1-1.4-21.6-3-33.8-3.9-78.7-5.7-129.1-35.7-164.1-61.1-41.5-30.1-66-69.8-76.9-124.9-3.3-16.8-2.6-32.2-1.5-46.5 3.6-47.9 33.4-86 81.7-104.6 13.9-5.3 31.6-8 52.7-8 16 0 30.1 1.6 38 3.1 15.7 3 31.1 7.8 45.9 14.3l0.5 0.2c14.5 7 30.1 16.4 46.4 28.2 16.2 11.7 32.1 25.2 47.1 40.3 15 15 29 31.2 41.7 48.1 6.7 8.9 12.9 18 18.5 27 6.3-8.1 13.4-16 21.2-23.6 15-14.7 31.8-28 49.9-39.5 18-11.5 37.2-21.2 57-28.9 20.2-7.9 40.4-12.8 59.9-14.6 7.9-0.8 15.7-1.2 23.1-1.2 19.8 0 38.1 2.9 54.2 8.7 22.1 7.9 41 19.2 56 33.6 17.5 16.8 28.6 33.9 33.7 52.3 14.9 53.6-4.3 100.8-27.3 127.1-33.2 38-76 65.8-127.3 82.6-37.7 12.4-79.1 18.6-123.2 18.6-24.5 0-44.5-2-56.9-3.7-5.6 27.9-10.4 58.2-14.5 90.4-4.8 38.2-7.2 77.8-7.2 117.9 0 18.8 0.4 37.8 1.2 56.6 0.8 19 1.8 36.5 2.8 52v0.1c0.7 12.1 1.6 24.2 2.6 35.9 0.8 8.8-2.2 17.7-8.2 24.2-6 6.6-14.5 10.4-23.4 10.5l-58 0.7z m-153.7-727c-16.7 0-30.7 2-40.6 5.8-48.7 18.7-58.5 55.2-60 75.4-0.9 12.5-1.6 24.8 0.9 37.3 9.3 46.9 28.9 78.9 63.5 104.1 31.4 22.8 76.5 49.6 146.6 54.7 13.4 1 25.9 2.7 36 4.1 7.5 1 14 1.9 18.7 2.3 8.1 0.5 15.4 4.7 19.9 11.4 4.6 6.7 5.8 15 3.3 22.8-9.9 31-15.5 62.6-21.4 96.2v0.2c-9.7 55.3-11.1 220.6-11.5 274.9v3.9l53.7-0.6c-0.9-11.3-1.8-22.9-2.5-34.5-1.1-15.8-2.1-33.6-2.9-52.8-0.8-19.3-1.2-38.8-1.2-58.1 0-41.5 2.5-82.6 7.5-122.1 4.5-35.6 9.9-69.1 16.2-99.5 2.6-12.5 13.7-21.5 26.4-21.5 1.4 0 2.8 0.1 4.2 0.3 10.1 1.6 31.1 4.2 58.4 4.2 66.9 0 160.2-15.5 224.9-89.6 5.2-6 14.8-19 20.3-38.8 5.2-18.7 5.1-37.8-0.2-56.9-3.5-12.4-11.5-24.5-24.5-37-11.6-11.1-26.3-19.9-43.9-26.2-12.5-4.5-26.9-6.7-42.8-6.7-6.3 0-13 0.4-19.8 1.1h-0.2c-16.3 1.5-33.4 5.7-50.6 12.4-17.7 6.9-35 15.7-51.2 26-16.1 10.2-31 22-44.3 35.1-9.3 9.1-17.4 18.6-24.1 28.3-4.9 7.1-12.9 11.3-21.5 11.3-9.4 0-18.1-5.1-22.8-13.3-6.3-11.1-13.8-22.4-22.2-33.6-11.7-15.7-24.7-30.6-38.6-44.5-13.8-13.8-28.2-26.1-43-36.7-14.6-10.5-28.4-18.9-41-25-12.3-5.4-25.2-9.4-38.2-11.8-5.8-1.2-17.8-2.6-31.5-2.6z" fill="#2aa515" p-id="19907"></path><path d="M504.7 424.8c-12.5 0-24.3-5.8-31.1-16.5-53.3-83.6-108.6-105.7-109.2-106-5.1-2-7.7-7.8-5.7-12.9 2-5.1 7.7-7.7 12.9-5.8 2.5 0.9 61.8 24.2 118.9 113.9 5.6 8.8 18.1 8.8 26.4 3.7 4.1-2.5 8.4-5.1 12.9-7.9 47-28.9 111.4-68.5 193.6-69.4 5.6-0.1 10 4.4 10.1 9.9 0.1 5.5-4.4 10-9.9 10.1-76.7 0.8-138.4 38.7-183.4 66.4-4.5 2.8-8.8 5.4-13 7.9-7.2 4.5-15 6.6-22.5 6.6z" fill="#2aa515" p-id="19908"></path></svg>