<?xml version="1.0" standalone="no"?><!DOCTYPE svg PUBLIC "-//W3C//DTD SVG 1.1//EN" "http://www.w3.org/Graphics/SVG/1.1/DTD/svg11.dtd"><svg t="1539137554154" class="icon" style="" viewBox="0 0 1024 1024" version="1.1" xmlns="http://www.w3.org/2000/svg" p-id="22218" xmlns:xlink="http://www.w3.org/1999/xlink" width="200" height="200"><defs><style type="text/css"></style></defs><path d="M1023.118222 350.947556a28.273778 28.273778 0 0 1-2.161778 11.605333l-107.633777 580.977778A174.478222 174.478222 0 0 0 910.222222 967.111111a28.444444 28.444444 0 0 1-28.444444 28.444445H142.222222a28.444444 28.444444 0 0 1-28.444444-28.444445 27.733333 27.733333 0 0 1 5.688889-16.099555c7.651556-16.497778 24.689778-7.480889 22.755555-12.344889h711.480889a26.140444 26.140444 0 0 1 0-5.176889L947.2 428.913778l-155.192889 129.877333a45.681778 45.681778 0 0 1-75.377778-2.360889L517.688889 273.066667a28.074667 28.074667 0 0 1-4.807111-17.066667H512a28.046222 28.046222 0 0 1-4.721778 17.066667l-199.111111 283.278222a51.854222 51.854222 0 0 1-75.52 2.360889L77.909333 429.511111 137.585778 768H711.111111a28.444444 28.444444 0 0 1 0 56.888889H113.777778a28.444444 28.444444 0 0 1-28.444445-28.444445v2.844445S24.263111 455.111111 5.688889 335.900444a28.302222 28.302222 0 0 1 55.779555 0l206.478223 177.095112 190.577777-271.018667A113.777778 113.777778 0 1 1 566.044444 241.777778l190.577778 271.331555 206.961778-173.198222a33.336889 33.336889 0 0 1 35.754667-27.022222A29.041778 29.041778 0 0 1 1024 346.339556zM568.888889 142.222222a56.888889 56.888889 0 1 0-56.888889 56.888889 56.888889 56.888889 0 0 0 56.888889-56.888889z" p-id="22219" fill="#ebdf04"></path></svg>