<?xml version="1.0" standalone="no"?><!DOCTYPE svg PUBLIC "-//W3C//DTD SVG 1.1//EN" "http://www.w3.org/Graphics/SVG/1.1/DTD/svg11.dtd"><svg t="1539224625860" class="icon" style="" viewBox="0 0 1024 1024" version="1.1" xmlns="http://www.w3.org/2000/svg" p-id="3249" xmlns:xlink="http://www.w3.org/1999/xlink" width="200" height="200"><defs><style type="text/css"></style></defs><path d="M799.479 67.491H223.205c-49.737 0-90.201 40.464-90.201 90.201v707.147c0 49.737 40.464 90.201 90.201 90.201h576.274c49.737 0 90.201-40.464 90.201-90.201V157.692c0.001-49.737-40.463-90.201-90.201-90.201z m-576.274 50h576.274c22.167 0 40.201 18.034 40.201 40.201v130.306c-100.422 21.075-213.452 32.177-328.338 32.177s-227.917-11.102-328.339-32.177V157.692c0.001-22.167 18.035-40.201 40.202-40.201zM799.479 905.04H223.205c-22.167 0-40.201-18.034-40.201-40.201V339.044c101.162 20.402 213.95 31.13 328.339 31.13s227.177-10.729 328.338-31.131v525.795c0 22.168-18.035 40.202-40.202 40.202z" fill="#E2262A" p-id="3250"></path><path d="M634.619 656.681c6.378 0 12.539-2.647 18.479-7.941 5.934-5.293 8.867-10.356 8.806-18.91-0.069-8.55-2.97-13.519-8.715-18.62-5.74-5.105-11.935-7.659-18.569-7.659h-84.143l103.911-126.215c3.959-4.594 6.414-11.231 7.374-19.908 0.956-8.68-2.814-16.653-11.297-23.93-8.493-7.277-16.914-9.51-25.273-6.705-8.359 2.814-14.328 6.453-17.901 10.914l-96.449 122.578-95.346-123.292c-4.212-4.849-10.466-8.427-18.762-10.724-8.296-2.296-16.498-0.123-24.598 6.513-8.108 6.64-11.873 14.329-11.299 23.065 0.572 8.744 3.097 15.604 7.561 20.581l99.947 127.124h-80.377c-6.762 0-12.987 2.52-18.664 7.561-5.681 5.044-8.519 9.914-8.519 18.335-0.13 8.812 2.711 14 8.519 19.298 5.808 5.291 12.027 7.938 18.664 7.938h86.693v41.248h-86.693c-6.762 0-12.956 2.778-18.568 8.329-5.618 5.555-8.424 10.616-8.424 18.912-0.127 8.936 2.711 14.156 8.519 19.385 5.81 5.233 11.965 7.851 18.472 7.851h86.695v60.931c0 7.783 2.901 15.473 8.711 23.07 5.806 7.592 14.388 11.166 25.749 10.719 11.361-0.447 19.883-4.341 25.56-11.677 5.68-7.34 8.519-14.711 8.519-22.114v-60.931h91.422c6.762 0 13.021-2.68 18.762-8.039 5.744-5.362 8.453-10.708 8.139-19.775-0.322-9.059-3.253-14.217-8.806-19.191-5.556-4.979-11.583-7.47-18.095-7.47h-91.422v-41.249h91.418z" fill="#E2262A" p-id="3251"></path></svg>