<?xml version="1.0" standalone="no"?><!DOCTYPE svg PUBLIC "-//W3C//DTD SVG 1.1//EN" "http://www.w3.org/Graphics/SVG/1.1/DTD/svg11.dtd"><svg t="1539137316199" class="icon" style="" viewBox="0 0 1024 1024" version="1.1" xmlns="http://www.w3.org/2000/svg" p-id="19389" xmlns:xlink="http://www.w3.org/1999/xlink" width="200" height="200"><defs><style type="text/css"></style></defs><path d="M527.852036 644.450614l-0.239454-26.723641 102.740966 0 8.940626-8.940626 0-44.542472-8.940626-8.940626-90.480734 0 96.866165-98.833983 2.555196-6.258541 0-19.787672-8.940626-8.940626L585.898057 421.482427l-6.215562 2.514263c-6.120394 5.919826-15.291265 14.84101-24.468275 23.867594-11.848862 11.661597-19.733437 19.589151-23.137976 23.336498-1.290389 0.986467 3.532453-4.002151-23.762193 24.403806-4.755304 4.947685-8.537444 8.858762-11.68104 12.076036l-52.623521-52.313459c-2.526543-2.672876-7.343245-7.677866-13.68365-14.231119-6.244214-6.453992-12.359492-12.753465-16.437367-16.945951l-6.40999-2.707668-44.604894 0-8.940626 9.028631c0.01842 1.902326 0.01842 1.902326 0.074701 8.18031 0.010233 1.156336 0.010233 1.156336 0.019443 2.329045 0.042979 5.533017 0.042979 5.533017 0.055259 9.191336 0 6.130627 8.334829 14.862499 56.434314 63.247486 0.884137 0.889253 0.884137 0.889253 1.769296 1.778506 12.178367 12.239765 25.223474 25.244964 38.267559 38.177508 0.653893 0.648776 1.277086 1.26583 1.906419 1.889023l-89.585341 0-8.940626 8.940626 0 44.542472 8.940626 8.940626 102.408391 0 0 26.989701-102.258988 0-8.940626 8.940626 0 44.277436 8.940626 8.940626L465.444685 706.876386l0 80.328513 8.940626 8.940626 44.604894 0 8.940626-8.980535-0.35918-80.288604 102.930277 0 8.940626-8.940626 0-44.544519-8.940626-8.940626L527.852036 644.450614z" fill="#EA8010" p-id="19390"></path><path d="M694.301999 276.958846c6.841825-11.43033 13.326517-22.827915 19.392676-34.023908 6.816243-12.579503 11.688203-22.215978 14.355963-27.805276 57.350173-96.950076 1.082658-167.045527-109.11821-134.093021-11.137665 3.917216-27.560706 9.214872-47.007617 14.508435-12.598946 3.429099-24.777313 6.355755-36.184107 8.623401-16.536628 3.28686-30.768771 5.04183-41.695634 5.04183-10.423397 0-23.169699-1.375324-37.616736-3.981684-12.916171-2.329045-26.7789-5.560646-41.10007-9.465582-19.043728-5.192256-34.897811-10.383488-44.137243-13.747095-111.967094-32.81743-166.898171 35.33067-110.155842 135.020136 2.153036 4.691859 7.888667 15.97074 15.875572 30.508851 8.112772 14.767332 16.817014 29.665647 26.030863 44.378743C159.687956 375.611703 64.847937 535.730471 64.847937 710.25432c0 42.637076 5.583159 84.661192 16.455787 125.292588 1.302669 8.897647 4.578272 19.915585 9.212826 30.404474 0.350994 1.037632 0.487094 1.433652 1.049912 3.063779l6.945179 20.045545 5.172813 0c27.214828 38.057781 73.990155 59.601446 130.461307 59.601446l556.957935 0c82.44778 0 142.452409-45.843094 152.276149-116.994598 10.032494-36.962843 15.549138-78.879512 15.549138-121.412211C958.927959 523.861142 851.393827 354.656439 694.301999 276.958846zM885.050368 819.951721c-6.226818 43.481304-39.767725 69.104891-93.946672 69.104891L234.145761 889.056612c-42.849924 0-73.462129-16.434298-87.327928-43.419905l-1.112334-2.165316-0.26606-0.673335c-2.788509-6.077416-4.779863-12.675694-5.929036-19.738553-10.161431-38.552038-15.055904-75.397201-15.055904-112.805182 0-163.337065 94.926999-312.560692 234.317677-380.664789l31.029714-15.160281-19.536962-28.477588c-14.890128-21.703301-28.728298-44.569078-41.111327-67.10842-7.404644-13.477966-12.633738-23.760147-15.318894-29.387307-31.054273-54.714136-20.258393-68.107167 38.795585-50.832735 8.840342 3.284813 26.187429 8.965186 47.02092 14.645558 15.897062 4.334725 31.417547 7.952112 46.199205 10.617825 17.671475 3.186576 33.797757 4.927219 48.195675 4.927219 15.416108 0 33.272801-2.202155 53.315276-6.184863 12.870122-2.558265 26.364461-5.801123 40.219004-9.572006 12.298094-3.347235 24.211425-6.925736 35.31532-10.507308 6.707772-2.163269 11.706623-3.866051 14.557554-4.879124 57.266261-17.084097 68.821435-2.690272 38.036291 49.473785-3.480264 7.024997-7.897877 15.761985-14.20042 27.392884-10.55745 19.484773-22.443152 39.640836-35.351136 59.32106l-20.031219 30.541597 33.939997 13.496385c151.913898 60.407812 259.476683 217.885426 259.476683 392.357086C899.322419 747.604996 894.482181 784.386714 885.050368 819.951721z" fill="#EA8010" p-id="19391"></path></svg>