<?xml version="1.0" standalone="no"?><!DOCTYPE svg PUBLIC "-//W3C//DTD SVG 1.1//EN" "http://www.w3.org/Graphics/SVG/1.1/DTD/svg11.dtd"><svg t="1538454514864" class="icon" style="" viewBox="0 0 1024 1024" version="1.1" xmlns="http://www.w3.org/2000/svg" p-id="6336" xmlns:xlink="http://www.w3.org/1999/xlink" width="200" height="200"><defs><style type="text/css"></style></defs><path d="M512 512m-448 0a448 448 0 1 0 896 0 448 448 0 1 0-896 0Z" fill="#2DC100" p-id="6337"></path><path d="M615.217 433.788c-49.194 2.571-91.972 17.483-126.703 51.176-35.09 34.041-51.108 75.751-46.73 127.461-19.228-2.383-36.742-5.004-54.355-6.488-6.083-0.512-13.302 0.216-18.454 3.123-17.103 9.651-33.499 20.548-52.933 32.694 3.566-16.127 5.874-30.25 9.96-43.833 3.005-9.984 1.613-15.54-7.584-22.044-59.055-41.692-83.948-104.089-65.319-168.329 17.236-59.428 59.561-95.469 117.071-114.257 78.497-25.641 166.713 0.514 214.445 62.835 17.237 22.512 27.809 47.779 30.602 77.662z m-226.41-20.017c0.452-11.749-9.728-22.334-21.821-22.688-12.381-0.363-22.565 9.098-22.927 21.3-0.365 12.365 9.092 22.274 21.563 22.59 12.364 0.313 22.728-9.161 23.185-21.202z m118.127-22.696c-12.137 0.223-22.394 10.561-22.179 22.357 0.222 12.227 10.283 21.793 22.764 21.643 12.514-0.151 22.004-9.817 21.885-22.302-0.103-12.257-10.119-21.923-22.47-21.698z" fill="#FFFFFF" p-id="6338"></path><path d="M725.741 740.48c-15.577-6.936-29.867-17.343-45.079-18.932-15.155-1.583-31.087 7.161-46.942 8.782-48.296 4.941-91.565-8.52-127.242-41.512-67.855-62.762-58.159-158.992 20.345-210.424 69.772-45.71 172.097-30.472 221.289 32.953 42.928 55.344 37.883 128.812-14.522 175.306-15.167 13.456-20.623 24.53-10.893 42.268 1.796 3.275 2 7.422 3.044 11.559zM548.422 568.8c9.919 0.01 18.083-7.752 18.458-17.546 0.397-10.371-7.944-19.068-18.327-19.111-10.28-0.048-18.895 8.774-18.536 18.988 0.337 9.762 8.56 17.657 18.405 17.669z m114.307-36.617c-9.621-0.067-17.798 7.81-18.19 17.532-0.417 10.397 7.665 18.934 17.952 18.96 9.952 0.034 17.816-7.492 18.179-17.395 0.385-10.421-7.699-19.026-17.941-19.097z" fill="#FFFFFF" p-id="6339"></path></svg>